<svg width="11" height="10" viewBox="0 0 11 10" fill="none" xmlns="http://www.w3.org/2000/svg">
<path d="M1.07372 1.08507C0.0704234 2.13166 0.013633 3.53369 1.07372 4.87649C2.13381 6.21928 5.31407 9.29981 5.31407 9.29981C5.31407 9.29981 8.57005 6.21928 9.55441 4.87649C10.5388 3.53369 10.5577 2.13166 9.55441 1.08507C9.31577 0.836111 9.03245 0.638626 8.72064 0.503889C8.40883 0.369153 8.07463 0.299805 7.73712 0.299805C7.39962 0.299805 7.06542 0.369153 6.7536 0.503889C6.44179 0.638626 6.15848 0.836111 5.91983 1.08507L5.31407 1.71697L4.7083 1.08507C4.46966 0.836111 4.18634 0.638626 3.87453 0.503889C3.56272 0.369153 3.22852 0.299805 2.89101 0.299805C2.55351 0.299805 2.21931 0.369153 1.90749 0.503889C1.59568 0.638626 1.31236 0.836111 1.07372 1.08507Z" stroke="#282828" stroke-width="0.6"/>
</svg>
