<svg width="102" height="16" viewBox="0 0 102 16" fill="none" xmlns="http://www.w3.org/2000/svg">
<path d="M49.1381 0H56.0506C57.2305 0 58.3966 0.250031 59.4171 0.809311C60.2868 1.28582 60.9998 2.02691 61.4103 2.9505C61.7023 3.60744 61.8302 4.30386 61.8118 5.05083V5.12009C61.8118 7.74888 60.2831 9.32491 58.1126 9.96592L62.2837 15.9999H59.072L55.2772 10.4462H51.8651V15.9999H49.1384V0H49.1381ZM55.8532 7.95528C57.8028 7.95528 59.0435 6.9039 59.0435 5.28182V5.21152C59.0435 3.49766 57.8478 2.56091 55.8314 2.56091H51.8654V7.95597L55.8532 7.95528Z" fill="white"/>
<path d="M69.3255 0H80.9345V2.51451H72.0498V6.675H79.8257V9.18881H72.0498V13.4861H80.9345V15.9999H69.3248L69.3255 0Z" fill="white"/>
<path d="M87.9759 0H93.7585C98.6325 0 102 3.45126 102 7.95389V8.0003C102 12.5022 98.6325 15.9996 93.7585 15.9996H87.9759V0ZM93.7585 13.4397C97.0152 13.4397 99.1417 11.1766 99.1417 8.04636V7.99753C99.1417 4.86556 97.0149 2.5571 93.7585 2.5571H90.6999V13.4352L93.7585 13.4393V13.4397Z" fill="white"/>
<path d="M2.725 0.000437476H0V16H2.725V0.000437476Z" fill="white"/>
<path d="M33.2127 9.18812H40.9879V6.6743H33.2127V2.51382H42.097V0H30.4877V15.9996H42.097V13.4875H33.2127V9.18743V9.18812Z" fill="white"/>
<path d="M17.4544 13.501C14.5867 13.5014 12.5109 11.0277 12.5109 8.00311V7.99653C12.5109 4.97226 14.5867 2.49827 17.4544 2.49827C19.2956 2.49862 20.4721 3.27156 21.7554 4.50925L23.4465 2.74345C22.6939 1.85068 21.7581 1.14145 20.7067 0.66771C19.6554 0.193967 18.5155 -0.032863 17.3688 0.00453779C16.3578 -0.00792913 15.3548 0.190501 14.4196 0.587018C13.4844 0.983536 12.6358 1.57018 11.9252 2.31196C11.2142 3.05409 10.655 3.93508 10.2814 4.90508C9.90777 5.87403 9.74799 6.91121 9.74799 7.95393V7.99791C9.74799 7.99791 9.74799 7.9993 9.74799 7.99999C9.74799 8.00068 9.74799 8.00137 9.74799 8.00207V8.04605C9.74799 9.08877 9.90777 10.1259 10.2814 11.0949C10.655 12.0649 11.2139 12.9462 11.9252 13.688C12.6358 14.4298 13.4844 15.0164 14.4196 15.413C15.3548 15.8095 16.3578 16.0079 17.3688 15.9954C18.5155 16.0328 19.6554 15.806 20.7067 15.3323C21.7581 14.8585 22.6939 14.1493 23.4465 13.2565L21.7554 11.4907C20.4724 12.7281 19.2956 13.5014 17.4544 13.5014V13.501Z" fill="white"/>
</svg>
