<svg width="11" height="11" viewBox="0 0 11 11" fill="none" xmlns="http://www.w3.org/2000/svg">
<path d="M3.82662 1.954C4.46012 0.818 4.77662 0.25 5.25012 0.25C5.72362 0.25 6.04012 0.818 6.67362 1.954L6.83762 2.248C7.01762 2.571 7.10762 2.7325 7.24762 2.839C7.38762 2.9455 7.56262 2.985 7.91262 3.064L8.23062 3.136C9.46062 3.4145 10.0751 3.5535 10.2216 4.024C10.3676 4.494 9.94862 4.9845 9.11012 5.965L8.89312 6.2185C8.65512 6.497 8.53562 6.6365 8.48212 6.8085C8.42862 6.981 8.44662 7.167 8.48262 7.5385L8.51562 7.877C8.64212 9.1855 8.70562 9.8395 8.32262 10.13C7.93962 10.4205 7.36362 10.1555 6.21262 9.6255L5.91412 9.4885C5.58712 9.3375 5.42362 9.2625 5.25012 9.2625C5.07662 9.2625 4.91312 9.3375 4.58612 9.4885L4.28812 9.6255C3.13662 10.1555 2.56062 10.4205 2.17812 10.1305C1.79462 9.8395 1.85812 9.1855 1.98462 7.877L2.01762 7.539C2.05362 7.167 2.07162 6.981 2.01762 6.809C1.96462 6.6365 1.84512 6.497 1.60712 6.219L1.39012 5.965C0.551618 4.985 0.132617 4.4945 0.278617 4.024C0.424617 3.5535 1.04012 3.414 2.27012 3.136L2.58812 3.064C2.93762 2.985 3.11212 2.9455 3.25262 2.839C3.39312 2.7325 3.48262 2.571 3.66262 2.248L3.82662 1.954Z" stroke="#282828" stroke-width="0.5"/>
</svg>
