<svg width="22" height="22" viewBox="0 0 22 22" fill="none" xmlns="http://www.w3.org/2000/svg">
<path d="M7.90421 4.158C9.17121 1.886 9.80421 0.75 10.7512 0.75C11.6982 0.75 12.3312 1.886 13.5982 4.158L13.9262 4.746C14.2862 5.392 14.4662 5.715 14.7462 5.928C15.0262 6.141 15.3762 6.22 16.0762 6.378L16.7122 6.522C19.1722 7.079 20.4012 7.357 20.6942 8.298C20.9862 9.238 20.1482 10.219 18.4712 12.18L18.0372 12.687C17.5612 13.244 17.3222 13.523 17.2152 13.867C17.1082 14.212 17.1442 14.584 17.2162 15.327L17.2822 16.004C17.5352 18.621 17.6622 19.929 16.8962 20.51C16.1302 21.091 14.9782 20.561 12.6762 19.501L12.0792 19.227C11.4252 18.925 11.0982 18.775 10.7512 18.775C10.4042 18.775 10.0772 18.925 9.42321 19.227L8.82721 19.501C6.52421 20.561 5.37221 21.091 4.60721 20.511C3.84021 19.929 3.96721 18.621 4.22021 16.004L4.28621 15.328C4.35821 14.584 4.39421 14.212 4.28621 13.868C4.18021 13.523 3.94121 13.244 3.46521 12.688L3.03121 12.18C1.35421 10.22 0.516212 9.239 0.808212 8.298C1.10021 7.357 2.33121 7.078 4.79121 6.522L5.42721 6.378C6.12621 6.22 6.47521 6.141 6.75621 5.928C7.03721 5.715 7.21621 5.392 7.57621 4.746L7.90421 4.158Z" stroke="black" stroke-width="1.5"/>
</svg>
