<svg width="22" height="20" viewBox="0 0 22 20" fill="none" xmlns="http://www.w3.org/2000/svg">
<path d="M2.29783 2.32053C0.291237 4.41371 0.177657 7.21778 2.29783 9.90336C4.418 12.5889 10.7785 18.75 10.7785 18.75C10.7785 18.75 17.2905 12.5889 19.2592 9.90336C21.228 7.21778 21.2658 4.41371 19.2592 2.32053C18.7819 1.82261 18.2153 1.42764 17.5917 1.15817C16.968 0.888697 16.2996 0.75 15.6246 0.75C14.9496 0.75 14.2812 0.888697 13.6576 1.15817C13.034 1.42764 12.4673 1.82261 11.9901 2.32053L10.7785 3.58434L9.567 2.32053C9.08971 1.82261 8.52307 1.42764 7.89945 1.15817C7.27583 0.888697 6.60742 0.75 5.93241 0.75C5.2574 0.75 4.589 0.888697 3.96538 1.15817C3.34175 1.42764 2.77512 1.82261 2.29783 2.32053Z" stroke="black" stroke-width="1.5"/>
</svg>
